<svg xmlns="http://www.w3.org/2000/svg" version="1.1" xmlns:xlink="http://www.w3.org/1999/xlink" xmlns:svgjs="http://svgjs.dev/svgjs" width="100%" height="100%" viewBox="0 0 1000 600"><rect width="1000" height="600" x="0" y="0" fill="#f3aa20"/><g><rect width="333.3333333333333" height="333.3333333333333" rx="13.333333333333334" ry="13.333333333333334" y="214.43355190673122" fill="#841e62" transform="matrix(0.6503257397773832,0,0,0.6503257397773833,0,52.160692979048804)" x="192.21136474609375"/><path d="M371.1385139092956 456.1002168635169L371.1385139092956 456.1002168635169L346.8271359233431 456.1002168635169Q345.86905206182774 456.1002168635169 345.86905206182774 455.05231263998445L345.86905206182774 455.05231263998445L345.86905206182774 332.1181771592938L317.8750392331756 332.1181771592938Q316.82713500964314 332.1181771592938 316.82713500964314 331.040332815089L316.82713500964314 331.040332815089L317.0367158543496 306.93853567384303Q317.0367158543496 306.10021229501706 317.8750392331756 306.10021229501706L317.8750392331756 306.10021229501706L399.76126927206724 306.10021229501706Q400.9289339782891 306.10021229501706 400.9289339782891 306.93853567384303L400.9289339782891 306.93853567384303L400.9289339782891 331.040332815089Q400.9289339782891 332.1181771592938 400.09061059946316 332.1181771592938L400.09061059946316 332.1181771592938L371.7672564434151 332.1181771592938L371.97683728812154 455.05231263998445Q371.97683728812154 456.1002168635169 371.1385139092956 456.1002168635169Z " fill="#f3aa20" transform="matrix(0.6503257397773832,0,0,0.6503257397773833,0,52.160692979048804)"/><path d="M661.6003745240913 454.0657214154315L661.6003745240913 454.0657214154315L638.0002972988316 454.0657214154315Q637.0702449943878 454.0657214154315 637.0702449943878 453.0484767074461L637.0702449943878 453.0484767074461L637.0702449943878 333.71114039350954L609.8952792239224 333.71114039350954Q608.8780345159371 333.71114039350954 608.8780345159371 332.6648315510103L608.8780345159371 332.6648315510103L609.0814834575342 309.26820326734764Q609.0814834575342 308.45440750095935 609.8952792239224 308.45440750095935L609.8952792239224 308.45440750095935L689.3856871193478 308.45440750095935Q690.5191883653887 308.45440750095935 690.5191883653887 309.26820326734764L690.5191883653887 309.26820326734764L690.5191883653887 332.6648315510103Q690.5191883653887 333.71114039350954 689.7053925990003 333.71114039350954L689.7053925990003 333.71114039350954L662.2107213488825 333.71114039350954L662.4141702904795 453.0484767074461Q662.4141702904795 454.0657214154315 661.6003745240913 454.0657214154315ZM725.1636367059178 454.0657214154315L725.1636367059178 454.0657214154315L701.4473029426026 454.0657214154315Q700.6335071762143 454.0657214154315 700.6335071762143 453.0484767074461L700.6335071762143 453.0484767074461L700.8369561178114 309.26820326734764Q700.8369561178114 308.45440750095935 701.8542008257966 308.45440750095935L701.8542008257966 308.45440750095935L725.1636367059178 308.45440750095935Q726.1808814139031 308.45440750095935 726.1808814139031 309.26820326734764L726.1808814139031 309.26820326734764L725.9774324723061 366.2048427800125L757.3376336127682 366.2048427800125L757.3376336127682 309.26820326734764Q757.3376336127682 308.45440750095935 758.1514293791565 308.45440750095935L758.1514293791565 308.45440750095935L781.4608652592775 308.45440750095935Q782.4781099672629 308.45440750095935 782.4781099672629 309.26820326734764L782.4781099672629 309.26820326734764L782.8850078504571 453.0484767074461Q782.8850078504571 454.0657214154315 781.8677631424717 454.0657214154315L781.8677631424717 454.0657214154315L758.3548783207535 454.0657214154315Q757.3376336127682 454.0657214154315 757.3376336127682 453.0484767074461L757.3376336127682 453.0484767074461L757.3376336127682 391.5197039415903L725.9774324723061 391.5197039415903L725.9774324723061 453.0484767074461Q725.9774324723061 454.0657214154315 725.1636367059178 454.0657214154315ZM838.6881461170811 456.1002108314022L838.6881461170811 456.1002108314022Q827.5275184637563 456.1002108314022 818.1398030157774 450.3745763321704L818.1398030157774 450.3745763321704Q808.83927997134 444.6780059674525 803.171773741136 435.11590571239043Q797.504267510932 425.5538054573282 797.504267510932 414.1025364588648L797.504267510932 414.1025364588648L797.7077164525291 347.8072456327348Q797.7077164525291 336.1525276926743 803.3170944137054 326.85200464823697L803.3170944137054 326.85200464823697Q808.83927997134 317.46428920025807 818.2560595538329 311.76771883554017Q827.6437750018117 306.1002126053362 838.6881461170811 306.1002126053362L838.6881461170811 306.1002126053362Q850.1103509810307 306.1002126053362 859.207425083871 311.7386547010263L859.207425083871 311.7386547010263Q868.4207557247668 317.34803266220257 873.9720054169153 326.7938763792093Q879.5523192435777 336.23972009621593 879.5523192435777 347.8072456327348L879.5523192435777 347.8072456327348L879.7557681851747 414.1025364588648Q879.7557681851747 425.5538054573282 874.2335826275402 435.0577774433627L874.2335826275402 435.0577774433627Q868.6242046663639 444.6780059674525 859.3236816219264 450.3745763321704Q850.0231585774892 456.1002108314022 838.6881461170811 456.1002108314022ZM838.6881461170811 430.8725420733659L838.6881461170811 430.8725420733659Q845.024127441104 430.8725420733659 849.7034530978366 425.6991261298976Q854.411842889083 420.5547743209432 854.411842889083 414.1025364588648L854.411842889083 414.1025364588648L854.2083939474859 347.8072456327348Q854.2083939474859 340.8609174839207 849.8197096358921 336.0362711546189Q845.4310253242982 331.24068895983083 838.6881461170811 331.24068895983083L838.6881461170811 331.24068895983083Q832.2359082550028 331.24068895983083 827.6437750018117 335.94907875107725Q823.0516417486209 340.65746854232367 823.0516417486209 347.8072456327348L823.0516417486209 347.8072456327348L823.0516417486209 414.1025364588648Q823.0516417486209 420.9616722041373 827.6437750018117 425.9025750714947Q832.2359082550028 430.8725420733659 838.6881461170811 430.8725420733659ZM934.0185073225639 456.1002108314022L934.0185073225639 456.1002108314022Q922.9741362072945 456.1002108314022 913.5864207593156 450.3745763321704L913.5864207593156 450.3745763321704Q904.1696411768228 444.6780059674525 898.6183914846741 434.99964917433493Q893.0380776580118 425.3503565157312 893.0380776580118 413.8990875172677L893.0380776580118 413.8990875172677L893.444975541206 309.26820326734764Q893.444975541206 308.45440750095935 894.2587713075942 308.45440750095935L894.2587713075942 308.45440750095935L917.7716561293124 308.45440750095935Q918.5854518957007 308.45440750095935 918.5854518957007 309.26820326734764L918.5854518957007 309.26820326734764L918.5854518957007 413.8990875172677Q918.5854518957007 420.9616722041373 923.09039274535 425.9025750714947Q927.5662694604854 430.8725420733659 934.0185073225639 430.8725420733659L934.0185073225639 430.8725420733659Q940.7613865297809 430.8725420733659 945.2372632449163 425.9025750714947Q949.7422040945657 420.9616722041373 949.7422040945657 413.8990875172677L949.7422040945657 413.8990875172677L949.7422040945657 309.26820326734764Q949.7422040945657 308.45440750095935 950.5559998609541 308.45440750095935L950.5559998609541 308.45440750095935L974.0688846826722 308.45440750095935Q974.8826804490604 308.45440750095935 974.8826804490604 309.26820326734764L974.8826804490604 309.26820326734764L975.2895783322546 413.8990875172677Q975.2895783322546 425.4666130537866 969.7673927746199 435.1740339814182L969.7673927746199 435.1740339814182Q964.1580148134436 444.76519837099414 954.8574917690063 450.43270460119817Q945.556968724569 456.1002108314022 934.0185073225639 456.1002108314022ZM1030.0464077563793 456.1002108314022L1030.0464077563793 456.1002108314022Q1018.7113952959714 456.1002108314022 1009.6143211931311 450.4908328702259L1009.6143211931311 450.4908328702259Q1000.4300546867493 444.88145490904964 994.8497408600869 435.3774829230152Q989.2984911679383 425.87351093698084 989.2984911679383 414.1025364588648L989.2984911679383 414.1025364588648L989.2984911679383 347.8072456327348Q989.2984911679383 336.35597663427137 994.9078691291146 326.9682611862924L994.9078691291146 326.9682611862924Q1000.4300546867493 317.46428920025807 1009.7305777311866 311.76771883554017Q1019.0311007756239 306.1002126053362 1030.0464077563793 306.1002126053362L1030.0464077563793 306.1002126053362Q1041.6139332928983 306.1002126053362 1050.9144563373357 311.6223981629708L1050.9144563373357 311.6223981629708Q1060.214979381773 317.26084025866095 1065.67903667038 326.6485557066399Q1071.1430939589868 336.0362711546189 1071.1430939589868 347.8072456327348L1071.1430939589868 347.8072456327348L1071.1430939589868 357.3984100223109Q1071.1430939589868 358.2122057886991 1070.1258492510015 358.2122057886991L1070.1258492510015 358.2122057886991L1046.6129644292835 358.2122057886991Q1045.7991686628952 358.2122057886991 1045.7991686628952 357.3984100223109L1045.7991686628952 357.3984100223109L1045.7991686628952 349.4348371655114Q1045.7991686628952 341.4712643087119 1041.294227813246 336.23972009621593Q1036.7892869635966 331.0372400182338 1030.0464077563793 331.0372400182338L1030.0464077563793 331.0372400182338Q1024.030131912009 331.0372400182338 1019.3217421207627 336.0362711546189Q1014.6424164640301 341.0643664255178 1014.6424164640301 347.8072456327348L1014.6424164640301 347.8072456327348L1014.6424164640301 414.1025364588648Q1014.6424164640301 420.9616722041373 1019.2345497172211 425.9025750714947Q1023.826682970412 430.8725420733659 1030.0464077563793 430.8725420733659L1030.0464077563793 430.8725420733659Q1036.7892869635966 430.8725420733659 1041.294227813246 426.0188316095501Q1045.7991686628952 421.1651211457344 1045.7991686628952 414.1025364588648L1045.7991686628952 414.1025364588648L1045.7991686628952 403.7847687064421L1031.1799090024201 403.7847687064421Q1030.0464077563793 403.7847687064421 1030.0464077563793 402.76752399845674L1030.0464077563793 402.76752399845674L1030.0464077563793 379.37089571479413Q1030.0464077563793 378.3536510068088 1031.1799090024201 378.3536510068088L1031.1799090024201 378.3536510068088L1070.3292981925988 378.3536510068088Q1071.1430939589868 378.3536510068088 1071.1430939589868 379.37089571479413L1071.1430939589868 379.37089571479413L1071.1430939589868 414.1025364588648Q1071.1430939589868 425.87351093698084 1065.6209084013522 435.3774829230152L1065.6209084013522 435.3774829230152Q1060.011530440176 444.88145490904964 1050.7981997992802 450.4908328702259Q1041.6139332928983 456.1002108314022 1030.0464077563793 456.1002108314022ZM1110.3796755527069 454.0657214154315L1110.3796755527069 454.0657214154315L1086.6633417893918 454.0657214154315Q1085.8495460230033 454.0657214154315 1085.8495460230033 453.0484767074461L1085.8495460230033 453.0484767074461L1086.0529949646007 309.26820326734764Q1086.0529949646007 308.45440750095935 1087.070239672586 308.45440750095935L1087.070239672586 308.45440750095935L1110.3796755527069 308.45440750095935Q1111.3969202606922 308.45440750095935 1111.3969202606922 309.26820326734764L1111.3969202606922 309.26820326734764L1111.1934713190954 366.2048427800125L1142.5536724595572 366.2048427800125L1142.5536724595572 309.26820326734764Q1142.5536724595572 308.45440750095935 1143.3674682259457 308.45440750095935L1143.3674682259457 308.45440750095935L1166.6769041060668 308.45440750095935Q1167.6941488140521 308.45440750095935 1167.6941488140521 309.26820326734764L1167.6941488140521 309.26820326734764L1168.1010466972461 453.0484767074461Q1168.1010466972461 454.0657214154315 1167.0838019892608 454.0657214154315L1167.0838019892608 454.0657214154315L1143.5709171675426 454.0657214154315Q1142.5536724595572 454.0657214154315 1142.5536724595572 453.0484767074461L1142.5536724595572 453.0484767074461L1142.5536724595572 391.5197039415903L1111.1934713190954 391.5197039415903L1111.1934713190954 453.0484767074461Q1111.1934713190954 454.0657214154315 1110.3796755527069 454.0657214154315ZM1229.804204270185 454.0657214154315L1229.804204270185 454.0657214154315L1206.2041270449254 454.0657214154315Q1205.3031388749955 454.0657214154315 1205.3031388749955 453.0484767074461L1205.3031388749955 453.0484767074461L1205.3031388749955 333.71114039350954L1178.1281731045303 333.71114039350954Q1177.081864262031 333.71114039350954 1177.081864262031 332.6648315510103L1177.081864262031 332.6648315510103L1177.285313203628 309.26820326734764Q1177.285313203628 308.45440750095935 1178.1281731045303 308.45440750095935L1178.1281731045303 308.45440750095935L1257.6185809999556 308.45440750095935Q1258.7230181114824 308.45440750095935 1258.7230181114824 309.26820326734764L1258.7230181114824 309.26820326734764L1258.7230181114824 332.6648315510103Q1258.7230181114824 333.71114039350954 1257.9092223450943 333.71114039350954L1257.9092223450943 333.71114039350954L1230.4436152294902 333.71114039350954L1230.6470641710875 453.0484767074461Q1230.6470641710875 454.0657214154315 1229.804204270185 454.0657214154315ZM1304.411837567281 456.1002108314022L1304.411837567281 456.1002108314022Q1293.28027404847 456.1002108314022 1283.8634944659775 450.3745763321704L1283.8634944659775 450.3745763321704Q1274.5629714215402 444.6780059674525 1269.0117217293914 435.11590571239043Q1263.431407902729 425.5538054573282 1263.431407902729 414.1025364588648L1263.431407902729 414.1025364588648L1263.431407902729 404.5113720692888Q1263.431407902729 403.377870823248 1264.4486526107144 403.377870823248L1264.4486526107144 403.377870823248L1287.9615374324326 403.377870823248Q1288.7753331988206 403.377870823248 1288.7753331988206 404.5113720692888L1288.7753331988206 404.5113720692888L1288.7753331988206 414.1025364588648Q1288.7753331988206 420.9616722041373 1293.3674664520117 425.9025750714947Q1297.9595997052024 430.8725420733659 1304.411837567281 430.8725420733659L1304.411837567281 430.8725420733659Q1310.951267832901 430.8725420733659 1315.5434010860918 425.8153826679531Q1320.135534339283 420.7582232625403 1320.135534339283 414.1025364588648L1320.135534339283 414.1025364588648Q1320.135534339283 406.4586690817179 1310.1374720665126 400.73303458248614L1310.1374720665126 400.73303458248614Q1308.5098805337361 399.7157898745008 1305.894108427488 398.23351901429356Q1303.2783363212402 396.75124815408634 1299.7034477760344 394.80395114165725L1299.7034477760344 394.80395114165725Q1296.128559230829 392.8566541292283 1292.7571196272206 390.96748538582693Q1289.3856800236117 389.0783166424256 1286.2176893616006 387.3344685715935L1286.2176893616006 387.3344685715935Q1274.766420363137 380.5915893643765 1269.2151706709883 370.41914228452316Q1263.634856844326 360.2757593391837 1263.634856844326 347.6037966911378L1263.634856844326 347.6037966911378Q1263.634856844326 335.94907875107725 1269.360491343558 326.5322991685844L1269.360491343558 326.5322991685844Q1275.0861258427894 317.26084025866095 1284.328520618199 311.76771883554017Q1293.5709153936086 306.3036615469332 1304.411837567281 306.3036615469332L1304.411837567281 306.3036615469332Q1315.5434010860918 306.3036615469332 1324.843924130529 311.8258471045679L1324.843924130529 311.8258471045679Q1334.144447174967 317.46428920025807 1339.7247610016288 326.7648122446954Q1345.2760106937776 336.0362711546189 1345.2760106937776 347.6037966911378L1345.2760106937776 347.6037966911378L1345.2760106937776 364.75163605431914Q1345.2760106937776 365.5654318207074 1344.4622149273891 365.5654318207074L1344.4622149273891 365.5654318207074L1320.9493301056714 365.5654318207074Q1320.135534339283 365.5654318207074 1320.135534339283 364.75163605431914L1320.135534339283 364.75163605431914L1319.932085397686 347.6037966911378Q1319.932085397686 340.25057065912955 1315.3399521444949 335.62937327142475Q1310.7478188913042 331.0372400182338 1304.411837567281 331.0372400182338L1304.411837567281 331.0372400182338Q1297.9595997052024 331.0372400182338 1293.3674664520117 335.94907875107725Q1288.7753331988206 340.8609174839207 1288.7753331988206 347.6037966911378L1288.7753331988206 347.6037966911378Q1288.7753331988206 354.43386830189644 1291.6817466502075 359.02600155508736Q1294.588160101594 363.64719894279216 1302.3773481513103 367.83243431278896L1302.3773481513103 367.83243431278896Q1303.1911439176988 368.2393321959832 1306.155685638113 369.8669237287597Q1309.1202273585272 371.49451526153626 1312.7241800382471 373.499940542993Q1316.3571968524802 375.47630168993595 1319.3217385728944 377.07482908819867Q1322.2862802933091 378.6442923519474 1322.8966271181002 378.9639978315999L1322.8966271181002 378.9639978315999Q1333.3306514085784 384.7768247343733 1339.4050555219765 393.2635520124224Q1345.4794596353745 401.7502792904715 1345.4794596353745 414.1025364588648L1345.4794596353745 414.1025364588648Q1345.4794596353745 426.07695987857784 1339.9572740777398 435.5809318646123L1339.9572740777398 435.5809318646123Q1334.3478961165638 445.08490385064664 1325.0473730721264 450.5780252737674Q1315.746850027689 456.1002108314022 1304.411837567281 456.1002108314022Z " fill="#346b6d" transform="matrix(0.6503257397773832,0,0,0.6503257397773833,0,52.160692979048804)"/></g></svg>